<svg width="16" height="19" viewBox="0 0 16 19" fill="none" xmlns="http://www.w3.org/2000/svg">
<g clip-path="url(#clip0_1_10616)">
<path d="M8.00417 5.68584C5.73274 5.68584 3.9006 7.48935 3.9006 9.72529C3.9006 11.9612 5.73274 13.7647 8.00417 13.7647C10.2756 13.7647 12.1077 11.9612 12.1077 9.72529C12.1077 7.48935 10.2756 5.68584 8.00417 5.68584ZM8.00417 12.3515C6.53631 12.3515 5.33631 11.1737 5.33631 9.72529C5.33631 8.27685 6.53274 7.09912 8.00417 7.09912C9.4756 7.09912 10.672 8.27685 10.672 9.72529C10.672 11.1737 9.47203 12.3515 8.00417 12.3515ZM13.2327 5.5206C13.2327 6.04443 12.8042 6.46279 12.2756 6.46279C11.7435 6.46279 11.3185 6.04092 11.3185 5.5206C11.3185 5.00029 11.747 4.57842 12.2756 4.57842C12.8042 4.57842 13.2327 5.00029 13.2327 5.5206ZM15.9506 6.47685C15.8899 5.21474 15.597 4.09678 14.6577 3.17568C13.722 2.25459 12.5863 1.96631 11.3042 1.90303C9.98274 1.8292 6.02203 1.8292 4.7006 1.90303C3.42203 1.96279 2.28632 2.25107 1.34703 3.17217C0.407746 4.09326 0.11846 5.21123 0.0541748 6.47334C-0.0208252 7.77412 -0.0208252 11.6729 0.0541748 12.9737C0.114889 14.2358 0.407746 15.3538 1.34703 16.2749C2.28632 17.196 3.41846 17.4843 4.7006 17.5476C6.02203 17.6214 9.98274 17.6214 11.3042 17.5476C12.5863 17.4878 13.722 17.1995 14.6577 16.2749C15.5934 15.3538 15.8863 14.2358 15.9506 12.9737C16.0256 11.6729 16.0256 7.77763 15.9506 6.47685ZM14.2435 14.3694C13.9649 15.0585 13.4256 15.5893 12.722 15.8671C11.6685 16.2784 9.16845 16.1835 8.00417 16.1835C6.83988 16.1835 4.33631 16.2749 3.28632 15.8671C2.58632 15.5929 2.04703 15.062 1.76489 14.3694C1.34703 13.3323 1.44346 10.8714 1.44346 9.72529C1.44346 8.5792 1.3506 6.11474 1.76489 5.08115C2.04346 4.39209 2.58274 3.86123 3.28632 3.5835C4.33989 3.17217 6.83988 3.26709 8.00417 3.26709C9.16845 3.26709 11.672 3.17568 12.722 3.5835C13.422 3.85771 13.9613 4.38857 14.2435 5.08115C14.6613 6.11826 14.5649 8.5792 14.5649 9.72529C14.5649 10.8714 14.6613 13.3358 14.2435 14.3694Z" fill="white"/>
</g>
<defs>
<clipPath id="clip0_1_10616">
<rect width="16" height="18" fill="white" transform="translate(0.000366211 0.730469)"/>
</clipPath>
</defs>
</svg>
