<svg width="16" height="16" viewBox="0 0 16 16" fill="none" xmlns="http://www.w3.org/2000/svg">
<g clip-path="url(#clip0_1_10620)">
<path d="M3.63302 15.7305V5.61H0.202722L0.202722 15.7305H3.63302ZM1.91832 4.22739C3.11452 4.22739 3.8591 3.45025 3.8591 2.47909C3.83682 1.48603 3.11457 0.730469 1.94102 0.730469C0.767647 0.730469 0.000335693 1.48605 0.000335693 2.47909C0.000335693 3.4503 0.744733 4.22739 1.89592 4.22739H1.91821H1.91832ZM5.53169 15.7305H8.96199V10.0787C8.96199 9.77623 8.98427 9.47407 9.07486 9.25785C9.32284 8.65351 9.88726 8.02759 10.8349 8.02759C12.0761 8.02759 12.5727 8.95567 12.5727 10.3162V15.7304H16.0028V9.92742C16.0028 6.8188 14.3105 5.3724 12.0536 5.3724C10.203 5.3724 9.39055 6.38673 8.93916 7.07758H8.96206V5.60979H5.53176C5.57678 6.55944 5.53176 15.7303 5.53176 15.7303L5.53169 15.7305Z" fill="white"/>
</g>
<defs>
<clipPath id="clip0_1_10620">
<rect width="16" height="15" fill="white" transform="translate(0.000335693 0.730469)"/>
</clipPath>
</defs>
</svg>
