<svg width="18" height="15" viewBox="0 0 18 15" fill="none" xmlns="http://www.w3.org/2000/svg">
<g clip-path="url(#clip0_1_10624)">
<path d="M18.0001 2.43488C17.326 2.71935 16.6111 2.90608 15.879 2.98885C16.6416 2.55344 17.227 1.86396 17.5027 1.04245C16.7779 1.45226 15.9848 1.74099 15.1577 1.89618C14.4841 1.21246 13.5244 0.785156 12.4622 0.785156C10.4227 0.785156 8.76915 2.36039 8.76915 4.30324C8.76915 4.57902 8.80185 4.8475 8.86478 5.10506C5.79564 4.95829 3.07455 3.55769 1.2531 1.42916C0.935287 1.94876 0.753178 2.55317 0.753178 3.19784C0.753178 4.41846 1.40519 5.49525 2.39603 6.12619C1.80959 6.10869 1.23605 5.95779 0.723295 5.68609C0.723084 5.70083 0.723084 5.71557 0.723084 5.73037C0.723084 7.43495 1.99602 8.85692 3.68535 9.18013C3.14154 9.32103 2.57113 9.34165 2.01768 9.24042C2.48758 10.6381 3.85143 11.6552 5.46735 11.6837C4.20348 12.6273 2.61112 13.1898 0.881006 13.1898C0.582881 13.1898 0.288975 13.1731 6.10352e-05 13.1406C1.63433 14.1388 3.57545 14.7212 5.66092 14.7212C12.4536 14.7212 16.168 9.36032 16.168 4.71125C16.168 4.55866 16.1645 4.40693 16.1573 4.25608C16.8803 3.75817 17.5043 3.14145 18.0001 2.43488Z" fill="white"/>
</g>
<defs>
<clipPath id="clip0_1_10624">
<rect width="18" height="14" fill="white" transform="translate(6.10352e-05 0.730469)"/>
</clipPath>
</defs>
</svg>
